<svg xmlns="http://www.w3.org/2000/svg" xmlns:xlink="http://www.w3.org/1999/xlink" width="100%" height="100%" viewBox="0 0 2835 2164" style="enable-background:new 0 0 2835 2164;background-color:transparent;" version="1.1">
<style>
	.color-card-fg {fill: #ffed00;}
	.color-card-bg {fill: #e5007d;}
	.color-text {fill: #e5007d;}
</style>

<g class="color-card-bg">
	<path d="M2305.42,349.167l249.166,937.916c14.167,52.917 -17.5,107.5 -70.416,121.25l-1799.58,477.917c-52.916,14.167 -107.5,-17.5 -121.25,-70.417l-249.166,-937.916c-14.167,-52.917 17.5,-107.5 70.416,-121.25l1799.58,-478.334c52.916,-14.166 107.5,17.5 121.25,70.834Z" />
</g>
<g>
	<g class="color-card-fg">
		<path d="M2336.67,630l-0,970.417c-0,55 -44.584,99.166 -99.167,99.166l-1862.08,0c-55,0 -99.167,-44.583 -99.167,-99.166l0,-970.417c0,-55 44.583,-99.167 99.167,-99.167l1862.08,0c54.583,-0.416 99.167,44.167 99.167,99.167Z" />
	</g>
	
	<g class="jl-signet color-text">
		<path d="M810,725l192.083,0l-108.75,407.917l-192.5,-0l109.167,-407.917Z" />
		<path d="M525.833,937.917l193.75,-0l-110,407.916l-139.166,-203.75l55.416,-204.166Z" />
	</g>
	<g class="jl-title color-text">
		<g class="jl-junge">
			<path d="M1057.92,888.333c-0,-3.75 0.833,-6.666 2.083,-10c1.25,-3.333 3.333,-5.833 5.417,-8.333c2.5,-2.5 5,-4.167 8.333,-5.417c3.333,-1.25 6.25,-2.083 10,-2.083c3.75,-0 6.667,0.833 10,2.083c3.333,1.25 5.833,3.334 8.333,5.417c2.5,2.5 4.167,5 5.417,8.333c1.25,3.334 2.083,6.667 2.083,10c0,3.334 -0.833,6.667 -2.083,10c-1.25,3.334 -3.333,5.834 -5.417,8.334c-2.083,2.5 -5,4.166 -8.333,5.416c-3.333,1.25 -6.25,2.084 -10,2.084c-3.75,-0 -6.667,-0.834 -10,-2.084c-3.333,-1.25 -5.833,-3.333 -8.333,-5.416c-2.5,-2.5 -4.167,-5 -5.417,-8.334c-1.667,-2.916 -2.083,-6.25 -2.083,-10Zm48.75,50l-0,194.167l-45.834,0l0,-194.167l45.834,0Z" />
			<path d="M1181.25,938.333l0,72.917c0,15.833 7.917,24.167 23.333,24.167c15.417,-0 23.334,-7.917 23.334,-24.167l-0,-72.917l45.833,0l0,81.667c0,17.5 -5.833,30.833 -17.083,39.583c-11.667,8.75 -28.75,13.334 -51.667,13.334c-22.917,-0 -40,-4.167 -51.667,-12.917c-11.666,-8.75 -17.5,-22.083 -17.5,-39.583l0,-81.667l45.417,-0.417Z"/>
			<path d="M1302.5,938.333l45.833,0l0,16.25c6.25,-7.5 12.5,-12.5 18.75,-15.416c6.25,-2.5 13.75,-3.75 22.5,-3.75c9.167,-0 16.667,1.666 23.334,4.583c6.666,2.917 12.083,7.083 16.666,12.5c3.75,4.583 6.25,9.167 7.5,14.583c1.25,5.417 2.084,11.667 2.084,18.334l-0,82.5l-45.834,-0l0,-65.417c0,-6.25 -0.416,-11.667 -1.25,-15.417c-0.833,-3.75 -2.5,-7.083 -5,-9.583c-2.083,-2.083 -4.166,-3.333 -6.666,-4.167c-2.5,-0.833 -5,-1.25 -7.917,-1.25c-7.917,0 -13.75,2.5 -17.917,7.084c-4.166,4.583 -6.25,11.25 -6.25,20l0,69.166l-45.833,0l0,-130Z" />
			<path d="M1612.92,938.333l-0,120.834c-0,7.083 -0.417,13.75 -1.25,19.583c-0.834,5.833 -2.084,10.833 -3.75,15c-2.084,5.417 -5,10.833 -9.584,15.417c-4.166,4.583 -9.583,8.75 -15.416,12.5c-6.25,3.75 -12.917,6.25 -20.417,8.333c-7.5,2.083 -15.833,2.917 -25,2.917c-10,-0 -19.167,-1.25 -27.917,-3.75c-8.333,-2.5 -15.833,-6.25 -22.083,-10.417c-6.25,-4.583 -11.667,-9.583 -15.417,-15.833c-4.166,-5.834 -6.666,-12.5 -7.916,-19.584l51.666,0c3.334,8.75 10.417,12.917 21.667,12.917c9.583,0 17.083,-2.5 22.083,-7.917c5,-5.416 7.917,-12.916 7.917,-22.5l0,-12.5c-3.333,3.334 -6.667,5.834 -9.583,7.917c-3.334,2.083 -6.25,3.75 -9.584,5c-3.333,1.25 -6.666,2.5 -10,2.917c-3.333,0.416 -7.5,0.833 -11.666,0.833c-9.167,0 -17.917,-1.667 -25.417,-4.583c-7.917,-3.334 -14.583,-7.5 -20,-13.334c-5.833,-5.833 -10,-12.5 -13.333,-20.416c-3.334,-7.917 -4.584,-17.084 -4.584,-26.667c0,-9.583 1.667,-19.167 5,-27.5c3.334,-8.333 7.917,-15.833 13.75,-22.083c5.834,-6.25 12.5,-11.25 20.834,-15c8.333,-3.75 16.666,-5.417 26.25,-5.417c15.416,0 28.333,5.833 38.75,17.083l-0,-13.75l45,0Zm-102.5,64.167c-0,4.167 0.833,7.917 2.083,11.667c1.667,3.75 3.75,6.666 6.25,9.583c2.5,2.917 5.833,4.583 9.167,6.25c3.75,1.667 7.5,2.5 11.666,2.5c4.167,0 7.917,-0.833 11.667,-2.5c3.75,-1.667 6.667,-3.75 9.167,-6.25c2.5,-2.5 4.583,-5.833 6.25,-9.583c1.666,-3.75 2.5,-7.5 2.5,-11.667c-0,-4.167 -0.834,-7.917 -2.5,-11.667c-1.667,-3.75 -3.75,-6.666 -6.25,-9.166c-2.5,-2.5 -5.834,-4.584 -9.584,-6.25c-3.75,-1.667 -7.5,-2.5 -11.25,-2.5c-3.75,-0 -7.916,0.833 -11.25,2.5c-3.333,1.666 -6.666,3.75 -9.166,6.25c-2.5,2.5 -5,5.833 -6.25,9.166c-1.667,3.75 -2.5,7.5 -2.5,11.667Z" />
			<path d="M1685.83,1010.83c0,19.584 9.167,29.584 27.917,29.584c10,-0 17.5,-4.167 22.5,-12.084l44.167,0c-8.75,29.584 -31.25,44.584 -67.084,44.584c-10.833,-0 -20.833,-1.667 -30,-5c-9.166,-3.334 -16.666,-7.917 -23.333,-14.167c-6.667,-6.25 -11.667,-13.333 -15,-21.667c-3.75,-8.333 -5.417,-17.916 -5.417,-28.333c0,-10.417 1.667,-20.417 5,-29.167c3.334,-8.75 8.334,-16.25 14.584,-22.083c6.25,-6.25 13.75,-10.833 22.5,-14.167c8.75,-3.333 18.75,-5 30,-5c11.25,0 20.833,1.667 29.583,5c8.75,3.334 16.25,7.917 22.083,14.167c5.834,6.25 10.834,13.75 13.75,22.917c2.917,9.166 4.584,19.166 4.584,30.416l-0,4.584l-95.834,0.416Zm53.75,-26.666c-1.666,-6.25 -4.583,-11.667 -9.166,-15.417c-4.584,-3.75 -10.417,-5.833 -17.084,-5.833c-7.083,-0 -12.916,1.666 -17.5,5.416c-4.583,3.75 -7.5,8.75 -8.333,15.834l52.083,-0Z" />
		</g>
		<g class="jl-liberale">
			<rect x="1152.5" y="1135.42" width="45.833" height="209.583" />
			<path d="M1224.58,1165.83c0,-3.75 0.834,-6.666 2.084,-10c1.25,-3.333 3.333,-5.833 5.416,-8.333c2.5,-2.5 5,-4.167 8.334,-5.417c3.333,-1.25 6.25,-2.083 10,-2.083c3.75,0 6.666,0.833 10,2.083c3.333,1.25 5.833,3.334 8.333,5.417c2.5,2.5 4.167,5 5.417,8.333c1.25,3.334 2.083,6.25 2.083,10c-0,3.75 -0.833,6.667 -2.083,10c-1.25,3.334 -3.334,5.834 -5.417,8.334c-2.5,2.5 -5,4.166 -8.333,5.416c-3.334,1.25 -6.25,2.084 -10,2.084c-3.75,-0 -6.667,-0.834 -10,-2.084c-3.334,-1.25 -5.834,-3.333 -8.334,-5.416c-2.5,-2.5 -4.166,-5 -5.416,-8.334c-1.667,-2.916 -2.084,-6.25 -2.084,-10Zm48.75,50l0,129.584l-45.833,-0l0,-129.584l45.833,0Z" />
			<path d="M1347.92,1135.42l-0,92.916c10.833,-11.25 24.166,-17.083 40.416,-17.083c9.584,0 18.334,1.667 26.25,5.417c7.917,3.75 15,8.333 20.417,14.583c5.833,6.25 10,13.333 13.333,21.667c3.334,8.333 4.584,17.083 4.584,26.666c-0,9.584 -1.667,18.75 -5,27.084c-3.334,8.333 -7.917,15.833 -13.75,22.083c-5.834,6.25 -12.917,11.25 -20.834,14.583c-7.916,3.334 -16.666,5.417 -25.833,5.417c-16.667,0 -30,-6.25 -40,-18.333l0,14.583l-45.833,0l-0,-209.583l46.25,-0Zm57.916,145.416c0,-4.166 -0.833,-7.916 -2.083,-11.666c-1.667,-3.75 -3.75,-6.667 -6.25,-9.584c-2.5,-2.5 -5.833,-5 -9.167,-6.25c-3.75,-1.666 -7.5,-2.5 -11.666,-2.5c-4.167,0 -7.917,0.834 -11.25,2.084c-3.75,1.666 -6.667,3.75 -9.167,6.25c-2.5,2.5 -4.583,5.833 -6.25,9.583c-1.667,3.75 -2.5,7.5 -2.5,11.667c0,4.166 0.833,7.916 2.083,11.25c1.667,3.75 3.75,6.666 6.25,9.166c2.5,2.5 5.834,4.584 9.584,6.25c3.75,1.667 7.5,2.5 11.666,2.5c4.167,0 7.917,-0.833 11.25,-2.083c3.75,-1.667 6.667,-3.75 9.167,-6.25c2.5,-2.5 4.583,-5.833 6.25,-9.167c1.25,-3.75 2.083,-7.5 2.083,-11.25Z" />
			<path d="M1518.33,1288.33c0,19.584 9.167,29.584 27.917,29.584c10,-0 17.5,-4.167 22.5,-12.084l44.167,0c-8.75,29.584 -31.25,44.584 -67.084,44.584c-10.833,-0 -20.833,-1.667 -30,-5c-9.166,-3.334 -16.666,-7.917 -23.333,-14.167c-6.667,-6.25 -11.667,-13.333 -15,-21.667c-3.75,-8.333 -5.417,-17.916 -5.417,-28.333c0,-10.417 1.667,-20.417 5,-29.167c3.334,-8.75 8.334,-16.25 14.584,-22.083c6.25,-5.833 13.75,-10.833 22.5,-14.167c8.75,-3.333 18.75,-5 30,-5c11.25,0 20.833,1.667 29.583,5c8.75,3.334 16.25,7.917 22.083,14.167c5.834,6.25 10.834,13.75 13.75,22.917c2.917,9.166 4.584,19.166 4.584,30.416l-0,4.584l-95.834,0.416Zm53.75,-26.666c-1.666,-6.25 -4.583,-11.667 -9.166,-15.417c-4.584,-3.75 -10.417,-5.833 -17.084,-5.833c-7.083,-0 -12.916,2.083 -17.5,5.416c-4.583,3.75 -7.5,8.75 -8.333,15.834l52.083,-0Z" />
			<path d="M1638.33,1215.83l45.834,0l-0,21.25c5,-7.916 10.833,-13.75 17.916,-17.916c7.084,-4.167 15.417,-6.25 24.584,-6.25l3.75,-0c1.25,-0 2.916,-0 5,0.416l-0,43.75c-6.25,-2.916 -12.5,-4.583 -19.584,-4.583c-10.416,0 -18.75,3.333 -23.75,9.583c-5,6.25 -7.916,15.417 -7.916,27.5l-0,55.417l-45.834,0l0,-129.167Z" />
			<path d="M1855.42,1215.83l45.833,0l0,129.584l-45.833,-0l-0,-14.584c-10,12.5 -22.917,18.334 -39.584,18.334c-9.583,-0 -18.333,-1.667 -25.833,-5c-7.917,-3.334 -15,-8.334 -20.833,-14.584c-5.834,-6.25 -10.417,-13.75 -13.75,-22.083c-3.334,-8.333 -5,-17.5 -5,-27.5c-0,-9.167 1.666,-17.917 4.583,-26.25c2.917,-8.333 7.5,-15.833 13.333,-21.667c5.834,-6.25 12.5,-11.25 20.417,-14.583c7.917,-3.333 16.667,-5.417 26.25,-5.417c16.25,0 29.583,5.834 40,17.084l0.417,-13.334Zm-57.5,64.167c-0,4.167 0.833,8.333 2.083,11.667c1.667,3.75 3.75,6.666 6.25,9.583c2.5,2.917 5.833,4.583 9.167,6.25c3.75,1.667 7.5,2.083 11.666,2.083c4.167,0 7.917,-0.833 11.667,-2.083c3.75,-1.667 6.667,-3.75 9.167,-6.25c2.5,-2.5 4.583,-5.833 6.25,-9.167c1.666,-3.75 2.5,-7.5 2.5,-11.25c-0,-3.75 -0.834,-7.916 -2.5,-11.666c-1.667,-3.75 -3.75,-6.667 -6.25,-9.584c-2.5,-2.5 -5.834,-4.583 -9.167,-6.25c-3.75,-1.666 -7.5,-2.083 -11.667,-2.083c-4.166,0 -8.333,0.833 -11.666,2.083c-3.75,1.667 -6.667,3.75 -9.167,6.25c-2.5,2.5 -4.583,5.834 -6.25,9.167c-1.25,3.75 -2.083,7.5 -2.083,11.25Z" />
			<rect x="1930" y="1135.42" width="45.833" height="209.583" />
			<path d="M2046.25,1288.33c0,19.584 9.167,29.584 27.917,29.584c10,-0 17.5,-4.167 22.5,-12.084l44.166,0c-8.75,29.584 -31.25,44.584 -67.083,44.584c-10.833,-0 -20.833,-1.667 -30,-5c-9.167,-3.334 -16.667,-7.917 -23.333,-14.167c-6.667,-6.25 -11.667,-13.333 -15,-21.667c-3.75,-8.333 -5.417,-17.916 -5.417,-28.333c-0,-10.417 1.667,-20.417 5,-29.167c3.333,-8.75 8.333,-16.25 14.583,-22.083c6.25,-5.833 13.75,-10.833 22.5,-14.167c8.75,-3.333 18.75,-5 30,-5c11.25,0 20.834,1.667 29.584,5c8.75,3.334 16.25,7.917 22.083,14.167c5.833,6.25 10.833,13.75 13.75,22.917c2.917,9.166 5,19.166 5,30.416l0,4.584l-96.25,0.416Zm53.75,-26.666c-1.667,-6.25 -4.583,-11.667 -9.167,-15.417c-4.583,-3.75 -10.416,-5.833 -17.083,-5.833c-7.083,-0 -12.917,2.083 -17.5,5.416c-4.583,3.334 -7.5,8.75 -8.333,15.834l52.083,-0Z" />
		</g>
	</g>

	<g class="subline-text color-text" transform="matrix(1 0 0 1 2140 1510)">
		<path d="M-875.76-78.72L-875.76-78.72L-884.76-73.32Q-887.28-77.52-890.70-79.68Q-894.12-81.84-899.28-81.84L-899.28-81.84Q-905.28-81.84-909.84-78.12Q-914.40-74.40-914.40-69L-914.40-69Q-914.40-64.68-911.22-61.50Q-908.04-58.32-901.92-56.04L-901.92-56.04L-895.32-53.52Q-883.92-49.20-878.40-42.72Q-872.88-36.24-872.88-26.28L-872.88-26.28Q-872.88-13.92-881.34-6Q-889.80 1.92-901.80 1.92L-901.80 1.92Q-912.36 1.92-920.22-5.04Q-928.08-12-929.76-23.40L-929.76-23.40L-918.36-25.80Q-918.36-18.48-913.32-13.56Q-908.28-8.64-900.84-8.64L-900.84-8.64Q-893.88-8.64-889.02-13.68Q-884.16-18.72-884.16-26.28L-884.16-26.28Q-884.16-32.16-887.70-36Q-891.24-39.84-899.76-43.44L-899.76-43.44L-906.00-46.08Q-916.80-50.64-921.24-56.16Q-925.68-61.68-925.68-69L-925.68-69Q-925.68-79.08-917.94-85.74Q-910.20-92.40-899.04-92.40L-899.04-92.40Q-891.48-92.40-885.48-88.86Q-879.48-85.32-875.76-78.72ZM-820.44-54.12L-820.44-54.12L-820.44-40.20Q-826.92-47.76-836.52-47.76L-836.52-47.76Q-844.20-47.76-849.72-41.82Q-855.24-35.88-855.24-28.08L-855.24-28.08Q-855.24-19.20-849.72-13.68Q-844.20-8.16-835.80-8.16L-835.80-8.16Q-831.12-8.16-827.40-10.08Q-823.68-12-820.44-15.60L-820.44-15.60L-820.44-1.80Q-824.28 0.24-828.00 1.08Q-831.72 1.92-835.92 1.92L-835.92 1.92Q-848.40 1.92-857.22-6.66Q-866.04-15.24-866.04-27.60L-866.04-27.60Q-866.04-36.12-861.96-43.08Q-857.88-50.04-850.80-53.94Q-843.72-57.84-835.32-57.84L-835.32-57.84Q-831.48-57.84-827.58-56.94Q-823.68-56.04-820.44-54.12ZM-808.80-104.16L-798.00-104.16L-798.00-48.60L-797.76-48.60Q-795.24-53.16-790.62-55.50Q-786.00-57.84-780.84-57.84L-780.84-57.84Q-770.76-57.84-765.84-52.02Q-760.92-46.20-760.92-34.08L-760.92-34.08L-760.92 0L-771.72 0L-771.72-32.76Q-771.72-41.76-774.60-45Q-777.48-48.24-784.08-48.24L-784.08-48.24Q-789.72-48.24-792.66-45.78Q-795.60-43.32-796.80-39.42Q-798.00-35.52-798.00-26.16L-798.00-26.16L-798.00 0L-808.80 0L-808.80-104.16ZM-745.56-104.16L-734.76-104.16L-734.76 0L-745.56 0L-745.56-104.16ZM-670.08-27.24L-670.08-27.24L-670.08-26.28L-712.92-26.28Q-712.68-18.12-707.82-12.90Q-702.96-7.68-696.00-7.68L-696.00-7.68Q-689.76-7.68-686.04-10.62Q-682.32-13.56-679.20-18.60L-679.20-18.60L-670.08-13.44Q-674.04-6.12-680.94-2.10Q-687.84 1.92-696.12 1.92L-696.12 1.92Q-708.24 1.92-715.98-6.24Q-723.72-14.40-723.72-27.60L-723.72-27.60Q-723.72-41.40-716.40-49.62Q-709.08-57.84-696.36-57.84L-696.36-57.84Q-684.12-57.84-677.10-49.86Q-670.08-41.88-670.08-27.24ZM-712.32-34.44L-680.88-34.44Q-681.84-40.92-685.86-44.70Q-689.88-48.48-696.48-48.48L-696.48-48.48Q-702.60-48.48-706.98-44.46Q-711.36-40.44-712.32-34.44L-712.32-34.44ZM-629.52-48L-629.52-48L-638.28-43.32Q-639.24-45.36-641.10-46.80Q-642.96-48.24-645.48-48.24L-645.48-48.24Q-647.76-48.24-649.56-46.62Q-651.36-45-651.36-42.72L-651.36-42.72Q-651.36-40.20-648.96-38.22Q-646.56-36.24-641.52-34.08L-641.52-34.08L-638.28-32.64Q-631.68-29.76-628.50-26.04Q-625.32-22.32-625.32-16.68L-625.32-16.68Q-625.32-8.88-630.96-3.48Q-636.60 1.92-644.64 1.92L-644.64 1.92Q-651.12 1.92-656.52-1.56Q-661.92-5.04-664.08-10.68L-664.08-10.68L-654.84-14.88Q-653.16-11.76-650.82-9.72Q-648.48-7.68-644.64-7.68L-644.64-7.68Q-641.16-7.68-638.64-9.84Q-636.12-12-636.12-15.60L-636.12-15.60Q-636.12-18-637.38-19.44Q-638.64-20.88-642.36-22.92L-642.36-22.92L-650.64-27.36Q-656.04-30.12-658.74-33.24Q-661.44-36.36-661.44-41.52L-661.44-41.52Q-661.44-48.12-656.52-52.98Q-651.60-57.84-644.88-57.84L-644.88-57.84Q-639.72-57.84-635.76-55.20Q-631.80-52.56-629.52-48ZM-595.56-20.40L-579.00-59.28L-562.56-20.40L-546.24-56.16L-534.00-56.16L-562.56 1.92L-579.00-35.64L-595.56 1.92L-624.12-56.16L-611.88-56.16L-595.56-20.40ZM-513.36-81.84Q-513.36-78.72-515.52-76.62Q-517.68-74.52-520.80-74.52L-520.80-74.52Q-523.92-74.52-526.08-76.62Q-528.24-78.72-528.24-81.84L-528.24-81.84Q-528.24-84.96-526.08-87.18Q-523.92-89.40-520.80-89.40L-520.80-89.40Q-517.68-89.40-515.52-87.18Q-513.36-84.96-513.36-81.84L-513.36-81.84ZM-526.20-56.16L-515.40-56.16L-515.40 0L-526.20 0L-526.20-56.16ZM-456.60-46.56L-456.60-46.56L-456.36-46.56L-456.36-56.16L-445.56-56.16L-445.56-0.36Q-445.56 16.08-452.10 24.12Q-458.64 32.16-472.92 32.16L-472.92 32.16Q-485.04 32.16-492.42 25.20Q-499.80 18.24-500.04 6.72L-500.04 6.72L-489.24 6.72Q-489.24 14.04-484.62 18.30Q-480.00 22.56-472.44 22.56L-472.44 22.56Q-463.80 22.56-460.08 17.64Q-456.36 12.72-456.36 2.52L-456.36 2.52L-456.36-8.76L-456.60-8.76Q-459.84-3.96-464.70-1.02Q-469.56 1.92-475.68 1.92L-475.68 1.92Q-487.44 1.92-495.00-6.54Q-502.56-15-502.56-28.44L-502.56-28.44Q-502.56-40.80-494.94-49.32Q-487.32-57.84-476.16-57.84L-476.16-57.84Q-469.68-57.84-464.70-54.72Q-459.72-51.60-456.60-46.56ZM-455.76-28.08L-455.76-28.08Q-455.76-37.20-460.98-42.72Q-466.20-48.24-474.12-48.24L-474.12-48.24Q-481.68-48.24-486.72-42.36Q-491.76-36.48-491.76-28.08L-491.76-28.08Q-491.76-19.32-486.72-13.50Q-481.68-7.68-474.00-7.68L-474.00-7.68Q-465.84-7.68-460.80-13.38Q-455.76-19.08-455.76-28.08ZM-432.12-42.96L-405.84-42.96L-405.84-33.96L-432.12-33.96L-432.12-42.96ZM-391.44-90.48L-380.16-90.48L-380.16-54L-337.08-54L-337.08-90.48L-325.80-90.48L-325.80 0L-337.08 0L-337.08-43.44L-380.16-43.44L-380.16 0L-391.44 0L-391.44-90.48ZM-285.72 1.92L-285.72 1.92Q-293.88 1.92-300.72-1.92Q-307.56-5.76-311.64-12.72Q-315.72-19.68-315.72-27.96L-315.72-27.96Q-315.72-36.24-311.82-42.96Q-307.92-49.68-301.02-53.76Q-294.12-57.84-285.72-57.84L-285.72-57.84Q-277.20-57.84-270.18-53.64Q-263.16-49.44-259.44-42.72Q-255.72-36-255.72-27.96L-255.72-27.96Q-255.72-20.16-259.38-13.32Q-263.04-6.48-270.06-2.28Q-277.08 1.92-285.72 1.92ZM-266.52-27.96L-266.52-27.96Q-266.52-36.12-272.22-41.82Q-277.92-47.52-285.84-47.52L-285.84-47.52Q-293.28-47.52-299.10-41.82Q-304.92-36.12-304.92-27.96L-304.92-27.96Q-304.92-20.16-299.22-14.28Q-293.52-8.40-285.72-8.40L-285.72-8.40Q-277.80-8.40-272.16-14.22Q-266.52-20.04-266.52-27.96ZM-245.40-104.16L-234.60-104.16L-234.60 0L-245.40 0L-245.40-104.16ZM-187.92-48L-187.92-48L-196.68-43.32Q-197.64-45.36-199.50-46.80Q-201.36-48.24-203.88-48.24L-203.88-48.24Q-206.16-48.24-207.96-46.62Q-209.76-45-209.76-42.72L-209.76-42.72Q-209.76-40.20-207.36-38.22Q-204.96-36.24-199.92-34.08L-199.92-34.08L-196.68-32.64Q-190.08-29.76-186.90-26.04Q-183.72-22.32-183.72-16.68L-183.72-16.68Q-183.72-8.88-189.36-3.48Q-195.00 1.92-203.04 1.92L-203.04 1.92Q-209.52 1.92-214.92-1.56Q-220.32-5.04-222.48-10.68L-222.48-10.68L-213.24-14.88Q-211.56-11.76-209.22-9.72Q-206.88-7.68-203.04-7.68L-203.04-7.68Q-199.56-7.68-197.04-9.84Q-194.52-12-194.52-15.60L-194.52-15.60Q-194.52-18-195.78-19.44Q-197.04-20.88-200.76-22.92L-200.76-22.92L-209.04-27.36Q-214.44-30.12-217.14-33.24Q-219.84-36.36-219.84-41.52L-219.84-41.52Q-219.84-48.12-214.92-52.98Q-210.00-57.84-203.28-57.84L-203.28-57.84Q-198.12-57.84-194.16-55.20Q-190.20-52.56-187.92-48ZM-171.60-77.64L-160.80-77.64L-160.80-56.16L-150.24-56.16L-150.24-46.08L-160.80-46.08L-160.80 0L-171.60 0L-171.60-46.08L-177.48-46.08L-177.48-56.16L-171.60-56.16L-171.60-77.64ZM-95.04-27.24L-95.04-27.24L-95.04-26.28L-137.88-26.28Q-137.64-18.12-132.78-12.90Q-127.92-7.68-120.96-7.68L-120.96-7.68Q-114.72-7.68-111.00-10.62Q-107.28-13.56-104.16-18.60L-104.16-18.60L-95.04-13.44Q-99.00-6.12-105.90-2.10Q-112.80 1.92-121.08 1.92L-121.08 1.92Q-133.20 1.92-140.94-6.24Q-148.68-14.40-148.68-27.60L-148.68-27.60Q-148.68-41.40-141.36-49.62Q-134.04-57.84-121.32-57.84L-121.32-57.84Q-109.08-57.84-102.06-49.86Q-95.04-41.88-95.04-27.24ZM-137.28-34.44L-105.84-34.44Q-106.80-40.92-110.82-44.70Q-114.84-48.48-121.44-48.48L-121.44-48.48Q-127.56-48.48-131.94-44.46Q-136.32-40.44-137.28-34.44L-137.28-34.44ZM-70.56-81.84Q-70.56-78.72-72.72-76.62Q-74.88-74.52-78.00-74.52L-78.00-74.52Q-81.12-74.52-83.28-76.62Q-85.44-78.72-85.44-81.84L-85.44-81.84Q-85.44-84.96-83.28-87.18Q-81.12-89.40-78.00-89.40L-78.00-89.40Q-74.88-89.40-72.72-87.18Q-70.56-84.96-70.56-81.84L-70.56-81.84ZM-83.40-56.16L-72.60-56.16L-72.60 0L-83.40 0L-83.40-56.16ZM-7.44-34.08L-7.44-34.08L-7.44 0L-18.24 0L-18.24-32.76Q-18.24-41.16-20.88-44.70Q-23.52-48.24-30.60-48.24L-30.60-48.24Q-37.92-48.24-41.22-43.68Q-44.52-39.12-44.52-27.60L-44.52-27.60L-44.52 0L-55.32 0L-55.32-56.16L-44.52-56.16L-44.52-48.60L-44.28-48.60Q-41.64-53.16-37.08-55.50Q-32.52-57.84-27.36-57.84L-27.36-57.84Q-17.16-57.84-12.30-51.90Q-7.44-45.96-7.44-34.08Z" />
	</g>
</g>
</svg>